# xmcd CD database file
#
# Track frame offsets:
#	150
#	23735
#	40058
#	55197
#	66244
#	91324
#	116975
#	133879
#	151327
#	168739
#	185295
#	199257
#	215536
#	233540
#	252676
#	273514
#	283250
#
# Disc length: 4052 seconds
#
# Revision: 3
# Processed by: cddbd v1.5.2PL0 Copyright (c) Steve Scherf et al.
# Submitted via: jetAudio 7
#
DISCID=050fd211
DTITLE=DJ Blue - Down Tempo Mix 
DYEAR=2004
DGENRE=Downtempo
TTITLE0=Chance (Mike Huckaby Remix)
TTITLE1=Gotta Make A Move (Spacecadets Remix Instrumental)
TTITLE2=Orfeu Negra (Seiji Remix)
TTITLE3=Afro Steppin'
TTITLE4=Starring At The Sun (Atjazz Remix)
TTITLE5=Touch The Sun (King Britt Remix)
TTITLE6=Downtown
TTITLE7=Foxy Music
TTITLE8=Boogie
TTITLE9=Mascarade
TTITLE10=Lacumbia
TTITLE11=Let Groove Come (Co-Op Dub)
TTITLE12=Up Stream (Lok8 Nocturnal Instrumental)
TTITLE13=Serve It Up! (Wah-Chu-Ku Vocal Mix #1)
TTITLE14=Verte Valle (Kabuki Remix)
TTITLE15=Dust (Dust And Water Mix By Todd Sines)
TTITLE16=Hal
EXTD=YEAR: 2004
EXTT0=
EXTT1=
EXTT2=
EXTT3=
EXTT4=
EXTT5=
EXTT6=
EXTT7=
EXTT8=
EXTT9=
EXTT10=
EXTT11=
EXTT12=
EXTT13=
EXTT14=
EXTT15=
EXTT16=
PLAYORDER=
